<?xml version="1.0" encoding="utf-8"?>
<!-- Generator: Adobe Illustrator 22.1.0, SVG Export Plug-In . SVG Version: 6.00 Build 0)  -->
<svg version="1.1" id="Layer_1" xmlns="http://www.w3.org/2000/svg" xmlns:xlink="http://www.w3.org/1999/xlink" x="0px" y="0px"
	 viewBox="0 0 126 25" style="enable-background:new 0 0 126 25;" xml:space="preserve">
<style type="text/css">
	.st0{fill:#FFFFFF;}
	.st1{clip-path:url(#SVGID_2_);}
	.st2{fill:#00A7D6;}
	.st3{fill:none;stroke:#1D1D1B;}
	.st4{clip-path:url(#SVGID_4_);}
</style>
<title>icon-syringe-250mg_v1</title>
<rect x="6.7" y="5.3" class="st0" width="18" height="10.7"/>
<g>
	<defs>
		<rect id="SVGID_1_" width="79.3" height="25"/>
	</defs>
	<clipPath id="SVGID_2_">
		<use xlink:href="#SVGID_1_"  style="overflow:visible;"/>
	</clipPath>
	<g class="st1">
		<path class="st2" d="M46.2,5.3H8.1C6.3,5.4,4,4.9,2.8,5.5C1.4,6.2,1,8,1,9.1v6.8c0,1.3,0.2,3.1,2.1,3.8c1.1,0.4,3.6-0.1,5,0h38.1
			L46.2,5.3z"/>
	</g>
</g>
<line class="st3" x1="24.2" y1="5.3" x2="24.2" y2="15.2"/>
<line class="st3" x1="45.8" y1="5.3" x2="45.8" y2="15.2"/>
<g>
	<defs>
		<rect id="SVGID_3_" width="79.3" height="25"/>
	</defs>
	<clipPath id="SVGID_4_">
		<use xlink:href="#SVGID_3_"  style="overflow:visible;"/>
	</clipPath>
	<g class="st4">
		<path d="M78.2,16.8c0,0.4-0.3,0.7-0.7,0.7c-0.4,0-0.7-0.3-0.7-0.7V8.2c0-0.4,0.3-0.7,0.7-0.7c0.4,0,0.7,0.3,0.7,0.7V16.8z
			 M75.8,15.2H65.2V9.8h10.6L75.8,15.2z M64.2,21.5c0,3.4-5.1,3.4-5.2,0V3.5c0-3.3,5.2-3.4,5.2,0V21.5z M58,19.7H4.8
			C2.7,19.7,1,18,1,15.9V9.1C1,7,2.7,5.3,4.8,5.3H58V19.7z M79.3,16.8V8.2c0-1-0.8-1.8-1.8-1.8s-1.8,0.8-1.8,1.8v0.6H65.2V3.5
			c0-4.7-7.2-4.8-7.2,0v0.8H4.8C2.3,4.3,0.2,6.2,0,8.6l0,0v7.7l0,0c0.2,2.5,2.3,4.3,4.8,4.3H58v0.8c0,4.7,7.2,4.8,7.2,0v-5.2h10.6
			v0.6c0,1,0.8,1.8,1.8,1.8S79.3,17.8,79.3,16.8"/>
	</g>
</g>
</svg>
