<svg id="Layer_1" data-name="Layer 1" xmlns="http://www.w3.org/2000/svg" xmlns:xlink="http://www.w3.org/1999/xlink" viewBox="0 0 126 19"><defs><style>.cls-1,.cls-4{fill:none;}.cls-2{clip-path:url(#clip-path);}.cls-3{fill:#00a7d6;}.cls-4{stroke:#1d1d1b;stroke-miterlimit:10;stroke-width:0.5px;}</style><clipPath id="clip-path"><rect class="cls-1" y="0.32" width="43" height="18.44"/></clipPath></defs><title>icon-tablet-750mg_v1</title><g class="cls-2"><path class="cls-3" d="M39.41,2.5A9,9,0,0,0,26.73,15.18L39.41,2.5"/><path class="cls-4" d="M39.41,2.5A9,9,0,0,0,26.73,15.18Z"/><path class="cls-4" d="M28.15,16.59A9,9,0,0,0,40.82,3.91Z"/><path class="cls-3" d="M14.85,2.5A9,9,0,0,0,2.18,15.18L14.85,2.5"/><path class="cls-4" d="M14.85,2.5A9,9,0,0,0,2.18,15.18Z"/><path class="cls-3" d="M3.59,16.59A9,9,0,0,0,16.27,3.91L3.59,16.59"/><path class="cls-4" d="M3.59,16.59A9,9,0,0,0,16.27,3.91Z"/></g></svg>