<svg id="Layer_1" data-name="Layer 1" xmlns="http://www.w3.org/2000/svg" xmlns:xlink="http://www.w3.org/1999/xlink" viewBox="0 0 126 25"><defs><style>.cls-1,.cls-5{fill:none;}.cls-2{fill:#fff;}.cls-3{clip-path:url(#clip-path);}.cls-4{fill:#00a7d6;}.cls-5{stroke:#1d1d1b;}</style><clipPath id="clip-path"><rect class="cls-1" width="79.26" height="25"/></clipPath></defs><title>icon-syringe-500mg_v1</title><rect class="cls-2" x="6.74" y="5.33" width="18" height="10.66"/><g class="cls-3"><path class="cls-4" d="M46.16,5.34H4.74A3.78,3.78,0,0,0,1,9.09v6.82a3.78,3.78,0,0,0,3.76,3.75H46.16Z"/></g><line class="cls-5" x1="11.49" y1="5.34" x2="11.49" y2="15.19"/><line class="cls-5" x1="20.06" y1="5.34" x2="20.06" y2="15.19"/><line class="cls-5" x1="28.64" y1="5.34" x2="28.64" y2="15.19"/><line class="cls-5" x1="37.21" y1="5.34" x2="37.21" y2="15.19"/><line class="cls-5" x1="45.78" y1="5.34" x2="45.78" y2="15.19"/><g class="cls-3"><path d="M78.24,16.78a.73.73,0,0,1-1.46,0V8.21a.73.73,0,0,1,1.46,0Zm-2.48-1.61H65.18V9.82H75.76Zm-11.6,6.28c0,3.35-5.14,3.43-5.15,0V3.55c0-3.35,5.16-3.43,5.15,0ZM58,19.67H4.76A3.78,3.78,0,0,1,1,15.91V9.09A3.78,3.78,0,0,1,4.76,5.33H58Zm21.27-2.89V8.22a1.75,1.75,0,0,0-3.5,0v.6H65.18V3.55c0-4.68-7.19-4.79-7.19,0v.76H4.76A4.8,4.8,0,0,0,0,8.65H0v7.7H0a4.8,4.8,0,0,0,4.75,4.34H58v.76c0,4.68,7.19,4.79,7.19,0V16.2H75.76v.6a1.75,1.75,0,0,0,3.5,0"/></g></svg>