<?xml version="1.0" encoding="utf-8"?>
<!-- Generator: Adobe Illustrator 22.1.0, SVG Export Plug-In . SVG Version: 6.00 Build 0)  -->
<svg version="1.1" id="Layer_1" xmlns="http://www.w3.org/2000/svg" xmlns:xlink="http://www.w3.org/1999/xlink" x="0px" y="0px"
	 viewBox="0 0 50 19" style="enable-background:new 0 0 50 19;" xml:space="preserve">
<style type="text/css">
	.st0{clip-path:url(#SVGID_2_);}
	.st1{fill:#00A7D6;}
	.st2{fill:none;stroke:#1D1D1B;stroke-width:0.5;stroke-miterlimit:10;}
</style>
<title>icon-tablet-750mg_v1</title>
<g>
	<defs>
		<rect id="SVGID_1_" y="0.3" width="43" height="18.4"/>
	</defs>
	<clipPath id="SVGID_2_">
		<use xlink:href="#SVGID_1_"  style="overflow:visible;"/>
	</clipPath>
	<g class="st0">
		<path class="st1" d="M39.4,2.5c-3.8-3.2-9.5-2.7-12.7,1.1c-2.8,3.3-2.8,8.2,0,11.6L39.4,2.5"/>
		<path class="st2" d="M39.4,2.5c-3.8-3.2-9.5-2.7-12.7,1.1c-2.8,3.3-2.8,8.2,0,11.6L39.4,2.5z"/>
		<path class="st2" d="M28.1,16.6c3.8,3.2,9.5,2.7,12.7-1.2c2.8-3.3,2.8-8.2,0-11.5L28.1,16.6z"/>
		<path class="st1" d="M14.9,2.5C11-0.7,5.4-0.2,2.2,3.7c-2.8,3.3-2.8,8.2,0,11.5L14.9,2.5"/>
		<path class="st2" d="M14.9,2.5C11-0.7,5.4-0.2,2.2,3.7c-2.8,3.3-2.8,8.2,0,11.5L14.9,2.5z"/>
		<path class="st1" d="M3.6,16.6c3.8,3.2,9.5,2.7,12.7-1.1c2.8-3.3,2.8-8.2,0-11.6L3.6,16.6"/>
		<path class="st2" d="M3.6,16.6c3.8,3.2,9.5,2.7,12.7-1.1c2.8-3.3,2.8-8.2,0-11.6L3.6,16.6z"/>
	</g>
</g>
</svg>
