<?xml version="1.0" encoding="utf-8"?>
<!-- Generator: Adobe Illustrator 22.1.0, SVG Export Plug-In . SVG Version: 6.00 Build 0)  -->
<svg version="1.1" id="Layer_1" xmlns="http://www.w3.org/2000/svg" xmlns:xlink="http://www.w3.org/1999/xlink" x="0px" y="0px"
	 viewBox="0 0 50 19" style="enable-background:new 0 0 50 19;" xml:space="preserve">
<style type="text/css">
	.st0{clip-path:url(#SVGID_2_);}
	.st1{fill:#00A7D6;}
	.st2{fill:none;stroke:#1D1D1B;stroke-width:0.5;stroke-miterlimit:10;}
</style>
<title>icon-tablet-375mg_v1</title>
<g>
	<g>
		<g>
			<defs>
				<rect id="SVGID_1_" x="-0.1" y="0.3" width="18.5" height="18.5"/>
			</defs>
			<clipPath id="SVGID_2_">
				<use xlink:href="#SVGID_1_"  style="overflow:visible;"/>
			</clipPath>
			<g class="st0">
				<path class="st1" d="M14.9,2.5C11-0.7,5.3,0,2.1,3.9c-1.3,1.6-2,3.6-2,5.7s0.7,4.1,2,5.7L14.9,2.5"/>
				<path class="st2" d="M14.9,2.5C11-0.7,5.3,0,2.1,3.9c-1.3,1.6-2,3.6-2,5.7s0.7,4.1,2,5.7L14.9,2.5z"/>
				<path class="st1" d="M16.3,15.2c2.7-3.3,2.7-8,0-11.3l-5.7,5.7L16.3,15.2"/>
				<path class="st2" d="M16.3,15.2c2.7-3.3,2.7-8,0-11.3l-5.7,5.7L16.3,15.2z"/>
				<path class="st2" d="M9.2,11l-5.7,5.6c3.3,2.7,8,2.7,11.3,0L9.2,11z"/>
			</g>
		</g>
	</g>
</g>
</svg>
