<svg id="Layer_1" data-name="Layer 1" xmlns="http://www.w3.org/2000/svg" xmlns:xlink="http://www.w3.org/1999/xlink" viewBox="0 0 126 19"><defs><style>.cls-1,.cls-4{fill:none;}.cls-2{clip-path:url(#clip-path);}.cls-3{fill:#00a7d6;}.cls-4{stroke:#1d1d1b;stroke-miterlimit:10;stroke-width:0.5px;}</style><clipPath id="clip-path"><rect class="cls-1" x="-0.05" y="0.28" width="18.54" height="18.54"/></clipPath></defs><title>icon-tablet-375mg_v1</title><g class="cls-2"><path class="cls-3" d="M14.88,2.47A9.06,9.06,0,0,0,.16,9.55a9.11,9.11,0,0,0,2,5.66L14.88,2.47"/><path class="cls-4" d="M14.88,2.47A9.06,9.06,0,0,0,.16,9.55a9.11,9.11,0,0,0,2,5.66Z"/><path class="cls-3" d="M16.3,15.21a9,9,0,0,0,0-11.32L10.64,9.55l5.66,5.66"/><path class="cls-4" d="M16.3,15.21a9,9,0,0,0,0-11.32L10.64,9.55Z"/><path class="cls-4" d="M9.22,11,3.56,16.62a9,9,0,0,0,11.32,0Z"/></g></svg>