<svg id="Layer_1" data-name="Layer 1" xmlns="http://www.w3.org/2000/svg" xmlns:xlink="http://www.w3.org/1999/xlink" viewBox="0 0 126 19"><defs><style>.cls-1,.cls-3{fill:none;}.cls-2{fill:#fff;}.cls-3{stroke:#010000;stroke-miterlimit:10;}.cls-4{clip-path:url(#clip-path);}.cls-5{fill:#00a7d6;}</style><clipPath id="clip-path"><rect class="cls-1" y="-0.05" width="125.72" height="19.05"/></clipPath></defs><title>icon-spoon-7_5ml_v1</title><rect class="cls-2" x="21.24" y="5.24" width="16.45" height="8.47"/><rect class="cls-3" x="21.24" y="5.24" width="16.45" height="8.47"/><g class="cls-4"><path class="cls-5" d="M.5,9.47c0,5,9.48,9,17.33,9,7.13,0,11.39-3.38,11.39-9S25,.45,17.83.45C10,.45.5,4.47.5,9.47"/><path class="cls-3" d="M.5,9.47c0,5,9.48,9,17.33,9,7.13,0,11.39-3.38,11.39-9S25,.45,17.83.45C10,.45.5,4.47.5,9.47Z"/><path class="cls-5" d="M53.15,9.47c0-3.5-6-6.31-11-6.31-4.54,0-7.26,2.36-7.26,6.31s2.72,6.32,7.26,6.32c5,0,11-2.82,11-6.32"/><path class="cls-3" d="M53.15,9.47c0-3.5-6-6.31-11-6.31-4.54,0-7.26,2.36-7.26,6.31s2.72,6.32,7.26,6.32C47.12,15.79,53.15,13,53.15,9.47Z"/></g></svg>