<?xml version="1.0" encoding="utf-8"?>
<!-- Generator: Adobe Illustrator 22.1.0, SVG Export Plug-In . SVG Version: 6.00 Build 0)  -->
<svg version="1.1" id="Layer_1" xmlns="http://www.w3.org/2000/svg" xmlns:xlink="http://www.w3.org/1999/xlink" x="0px" y="0px"
	 viewBox="0 0 18.8 19" style="enable-background:new 0 0 18.8 19;" xml:space="preserve">
<style type="text/css">
	.st0{fill:#00A7D6;}
	.st1{fill:none;stroke:#1D1D1B;stroke-width:0.5;stroke-miterlimit:10;}
</style>
<title>icon-tablet-500mg_v1</title>
<path class="st0" d="M14.9,2.5C11-0.7,5.4-0.2,2.2,3.7c-2.8,3.3-2.8,8.2,0,11.5L14.9,2.5"/>
<path class="st1" d="M14.9,2.5C11-0.7,5.4-0.2,2.2,3.7c-2.8,3.3-2.8,8.2,0,11.5L14.9,2.5z"/>
<path class="st0" d="M3.6,16.6c3.8,3.2,9.5,2.7,12.7-1.1c2.8-3.3,2.8-8.2,0-11.6L3.6,16.6"/>
<path class="st1" d="M3.6,16.6c3.8,3.2,9.5,2.7,12.7-1.1c2.8-3.3,2.8-8.2,0-11.6L3.6,16.6z"/>
</svg>
